<?xml version="1.0" encoding="utf-8"?>
<!-- Generator: Adobe Illustrator 22.0.1, SVG Export Plug-In . SVG Version: 6.00 Build 0)  -->
<svg version="1.1" id="Calque_1" xmlns="http://www.w3.org/2000/svg" xmlns:xlink="http://www.w3.org/1999/xlink" x="0px" y="0px"
	 viewBox="0 0 227.1 40.7" style="enable-background:new 0 0 227.1 40.7;" xml:space="preserve">
<style type="text/css">
	.st0{fill:#FFFFFF;}
</style>
<g>
	<path class="st0" d="M225.8,26.9c-0.9-2.4-3.6-3.6-6-2.7c-2.4,0.9-3.6,3.6-2.7,6c0.9,2.4,3.6,3.6,6,2.7
		C225.5,31.9,226.7,29.3,225.8,26.9z"/>
	<path class="st0" d="M15.1,19.9c-0.9-0.5-1.8-0.9-2.8-1.2c-1-0.3-1.9-0.6-2.8-0.8c-0.9-0.3-1.6-0.6-2.1-1c-0.6-0.4-0.8-1-0.8-1.7
		c0-0.5,0.1-0.9,0.4-1.2c0.2-0.3,0.5-0.6,0.9-0.8c0.4-0.2,0.8-0.3,1.2-0.4c0.4-0.1,0.8-0.1,1.2-0.1c0.7,0,1.4,0.1,2.2,0.4
		c0.8,0.3,1.4,0.7,1.8,1.3L18,10c-1.1-0.9-2.3-1.6-3.6-2c-1.3-0.4-2.7-0.6-4.1-0.6c-1.2,0-2.4,0.2-3.6,0.5C5.6,8.3,4.6,8.8,3.7,9.5
		C2.8,10.2,2.1,11,1.6,12c-0.5,1-0.8,2.2-0.8,3.5c0,1.4,0.3,2.5,0.9,3.4C2.3,19.8,3,20.4,3.9,21c0.9,0.5,1.8,0.9,2.8,1.2
		c1,0.3,2,0.6,2.8,0.9c0.9,0.3,1.6,0.7,2.2,1.1c0.6,0.4,0.9,1,0.9,1.8c0,0.4-0.1,0.8-0.3,1.2c-0.2,0.3-0.5,0.6-0.9,0.8
		c-0.4,0.2-0.8,0.4-1.2,0.5c-0.5,0.1-0.9,0.2-1.4,0.2c-0.9,0-1.8-0.2-2.7-0.6c-0.9-0.4-1.6-1-2.1-1.8L0,30.6
		c1.2,1.1,2.5,1.9,3.9,2.4c1.4,0.5,2.9,0.7,4.5,0.7c1.3,0,2.5-0.2,3.7-0.5s2.2-0.8,3.1-1.5c0.9-0.7,1.6-1.5,2.1-2.6
		c0.5-1,0.8-2.3,0.8-3.6c0-1.5-0.3-2.6-0.8-3.5C16.7,21.1,15.9,20.4,15.1,19.9z"/>
	<polygon class="st0" points="36.7,22.9 47.6,22.9 47.6,17.8 36.7,17.8 36.7,13.2 48.2,13.2 48.2,8.1 31.2,8.1 31.2,33.1 48.9,33.1 
		48.9,28 36.7,28 	"/>
	<path class="st0" d="M70.4,8.1l-10.8,25h6.1l2.1-5.3h9.7l2.2,5.3h6.2l-10.9-25H70.4z M69.4,23.1l3-7.8l3.1,7.8H69.4z"/>
	<path class="st0" d="M110.4,19.9c-0.9-0.5-1.8-0.9-2.8-1.2c-1-0.3-1.9-0.6-2.8-0.8c-0.9-0.3-1.6-0.6-2.1-1c-0.6-0.4-0.8-1-0.8-1.7
		c0-0.5,0.1-0.9,0.4-1.2c0.2-0.3,0.5-0.6,0.9-0.8c0.4-0.2,0.8-0.3,1.2-0.4c0.4-0.1,0.8-0.1,1.2-0.1c0.7,0,1.4,0.1,2.2,0.4
		c0.8,0.3,1.4,0.7,1.8,1.3l3.8-4.1c-1.1-0.9-2.3-1.6-3.6-2c-1.3-0.4-2.7-0.6-4.1-0.6c-1.2,0-2.4,0.2-3.6,0.5
		c-1.2,0.3-2.2,0.9-3.1,1.5c-0.9,0.7-1.6,1.5-2.1,2.5c-0.5,1-0.8,2.2-0.8,3.5c0,1.4,0.3,2.5,0.9,3.4c0.6,0.8,1.3,1.5,2.2,2.1
		c0.9,0.5,1.8,0.9,2.8,1.2c1,0.3,2,0.6,2.8,0.9c0.9,0.3,1.6,0.7,2.2,1.1c0.6,0.4,0.9,1,0.9,1.8c0,0.4-0.1,0.8-0.3,1.2
		c-0.2,0.3-0.5,0.6-0.9,0.8c-0.4,0.2-0.8,0.4-1.2,0.5c-0.5,0.1-0.9,0.2-1.4,0.2c-0.9,0-1.8-0.2-2.7-0.6c-0.9-0.4-1.6-1-2.1-1.8
		l-3.9,4.3c1.2,1.1,2.5,1.9,3.9,2.4c1.4,0.5,2.9,0.7,4.5,0.7c1.3,0,2.5-0.2,3.7-0.5c1.2-0.3,2.2-0.8,3.1-1.5
		c0.9-0.7,1.6-1.5,2.1-2.6c0.5-1,0.8-2.3,0.8-3.6c0-1.5-0.3-2.6-0.8-3.5C111.9,21.1,111.2,20.4,110.4,19.9z"/>
	<polygon class="st0" points="124,12.9 131.1,12.9 131.1,33.1 136.7,33.1 136.7,12.9 143.8,12.9 143.8,8.1 124,8.1 	"/>
	<path class="st0" d="M205,20.2c0.9-1.2,1.4-2.7,1.4-4.5c0-1.5-0.3-2.7-0.8-3.7c-0.5-1-1.2-1.8-2.1-2.3c-0.9-0.6-1.9-1-3-1.2
		c-1.1-0.2-2.4-0.4-3.6-0.4h-9.7v25h5.5v-10h2.7l5.2,10h6.6l-6.4-10.6C202.7,22.2,204,21.4,205,20.2z M200.2,17.2
		c-0.3,0.4-0.7,0.7-1.1,0.8c-0.4,0.2-0.9,0.3-1.5,0.3c-0.6,0-1.1,0.1-1.6,0.1h-3.3v-5.7h3.6c0.5,0,1,0,1.5,0.1
		c0.5,0.1,1,0.2,1.4,0.4c0.4,0.2,0.7,0.5,1,0.9c0.3,0.4,0.4,0.9,0.4,1.5C200.6,16.3,200.5,16.8,200.2,17.2z"/>
	<polygon class="st0" points="160.4,8.1 149.6,33.1 155.7,33.1 162.5,15.3 169.6,33.1 175.9,33.1 165,8.1 	"/>
</g>
</svg>
